<svg width="37" height="36" viewBox="0 0 37 36" fill="none" xmlns="http://www.w3.org/2000/svg">
<path d="M33.6464 18.2662C34.7367 17.2772 35.5996 16.0687 36.1768 14.7221C36.7541 13.3756 37.0323 11.9223 36.9926 10.4605C36.9926 4.42402 32.778 0 26.5018 0C20.508 0 17.6972 2.71931 15.3093 10.0927C14.2318 13.411 12.8269 15.0234 10.3918 15.0234C9.16298 15.0029 7.98861 14.5189 7.10928 13.6705C6.22995 12.8222 5.71222 11.6738 5.66216 10.4605C5.62766 9.80849 5.73495 9.15673 5.9768 8.54912C6.21865 7.94151 6.58944 7.39214 7.06423 6.938C7.53901 6.48387 8.10676 6.1355 8.72925 5.91635C9.35174 5.6972 10.0145 5.61236 10.673 5.66754V0.691218C4.63188 0.777898 1.02587 4.83852 1.02587 10.4605C1.01927 11.8372 1.31235 13.1991 1.88523 14.454C2.45811 15.709 3.29739 16.8275 4.34618 17.7338C3.25586 18.7228 2.39296 19.9313 1.81571 21.2779C1.23846 22.6244 0.960297 24.0777 1 25.5395C1 31.576 5.2145 36 11.4907 36C17.4846 36 20.2954 33.2818 22.6833 25.9084C23.7608 22.5902 25.1645 20.9777 27.6007 20.9777C28.8296 20.9982 30.0039 21.4822 30.8833 22.3306C31.7626 23.1789 32.2803 24.3273 32.3304 25.5406C32.3646 26.1924 32.257 26.8439 32.015 27.4513C31.773 28.0586 31.4022 28.6077 30.9274 29.0616C30.4527 29.5155 29.8851 29.8637 29.2627 30.0827C28.6404 30.3017 27.9778 30.3865 27.3196 30.3313V35.3077C33.3607 35.2154 36.9667 31.1604 36.9667 25.5384C36.9733 24.1617 36.6802 22.7998 36.1073 21.5449C35.5344 20.2899 34.6952 19.1714 33.6464 18.265M16.8761 26.2752C15.6119 29.9157 14.0192 31.0215 11.4907 31.0215C8.07254 31.0215 5.64192 28.8556 5.64192 25.5373C5.64192 22.6479 7.05462 20.4865 9.96102 19.9809C10.1365 19.9909 10.3131 19.9964 10.4908 19.9964C15.4083 19.9964 18.2179 18.1528 21.121 9.71928C22.3852 6.07872 23.9779 4.97299 26.5063 4.97299C29.9245 4.97299 32.3551 7.13888 32.3551 10.4572C32.3551 13.5043 30.2631 15.638 27.0192 16.0025C22.3998 16.1269 19.6813 18.1206 16.875 26.2718" fill="#C91E1E"/>
</svg>
