<svg xmlns="http://www.w3.org/2000/svg" xmlns:xlink="http://www.w3.org/1999/xlink" width="303" height="194" viewBox="0 0 303 194">
  <defs>
    <filter id="Elipse_7" x="0" y="35" width="222" height="121" filterUnits="userSpaceOnUse">
      <feOffset dy="3" input="SourceAlpha"/>
      <feGaussianBlur stdDeviation="6" result="blur"/>
      <feFlood flood-opacity="0.161"/>
      <feComposite operator="in" in2="blur"/>
      <feComposite in="SourceGraphic"/>
    </filter>
    <filter id="Elipse_7-2" x="81" y="73" width="222" height="121" filterUnits="userSpaceOnUse">
      <feOffset dy="3" input="SourceAlpha"/>
      <feGaussianBlur stdDeviation="6" result="blur-2"/>
      <feFlood flood-opacity="0.161"/>
      <feComposite operator="in" in2="blur-2"/>
      <feComposite in="SourceGraphic"/>
    </filter>
  </defs>
  <g id="blog-image1" transform="translate(-455 -527)" style="mix-blend-mode: luminosity;isolation: isolate">
    <g id="Grupo_22" data-name="Grupo 22" transform="translate(473 527)">
      <g transform="matrix(1, 0, 0, 1, -18, 0)" filter="url(#Elipse_7)">
        <ellipse id="Elipse_7-3" data-name="Elipse 7" cx="93" cy="42.5" rx="93" ry="42.5" transform="translate(18 50)" fill="#3b8a3b"/>
      </g>
      <ellipse id="Elipse_8" data-name="Elipse 8" cx="93" cy="42.5" rx="93" ry="42.5" transform="translate(0 26)" fill="#62b162"/>
      <ellipse id="Elipse_9" data-name="Elipse 9" cx="93" cy="42.5" rx="93" ry="42.5" fill="#72d972"/>
    </g>
    <g id="Grupo_23" data-name="Grupo 23" transform="translate(554.451 565.37)">
      <g transform="matrix(1, 0, 0, 1, -99.45, -38.37)" filter="url(#Elipse_7-2)">
        <ellipse id="Elipse_7-4" data-name="Elipse 7" cx="93" cy="42.5" rx="93" ry="42.5" transform="translate(99 88)" fill="#3b8a3b"/>
      </g>
      <ellipse id="Elipse_8-2" data-name="Elipse 8" cx="93" cy="42" rx="93" ry="42" transform="translate(-0.451 26.63)" fill="#62b162"/>
      <ellipse id="Elipse_9-2" data-name="Elipse 9" cx="93" cy="42.5" rx="93" ry="42.5" transform="translate(-0.451 -0.37)" fill="#72d972"/>
    </g>
  </g>
</svg>
