<svg xmlns="http://www.w3.org/2000/svg" xmlns:xlink="http://www.w3.org/1999/xlink" width="118.852" height="24.284" viewBox="0 0 118.852 24.284">
  <defs>
    <clipPath id="clip-path">
      <rect id="Rect치ngulo_4" data-name="Rect치ngulo 4" width="23.988" height="24.284" fill="#c91e1e"/>
    </clipPath>
    <clipPath id="clip-path-2">
      <rect id="Rect치ngulo_5" data-name="Rect치ngulo 5" width="82.959" height="23.613" fill="#3b3b3b"/>
    </clipPath>
  </defs>
  <g id="SvgArjelFixed" transform="translate(-262.148 -935.858)">
    <g id="Grupo_10" data-name="Grupo 10" transform="translate(286.136 960.142) rotate(180)">
      <g id="Grupo_5" data-name="Grupo 5" transform="translate(0 0)" clip-path="url(#clip-path)">
        <path id="Trazado_9" data-name="Trazado 9" d="M21.758,12.321a6.9,6.9,0,0,0,2.23-5.265A6.729,6.729,0,0,0,17,0c-4,0-5.868,1.834-7.459,6.808-.718,2.238-1.654,3.326-3.277,3.326A3.209,3.209,0,0,1,3.107,7.056a3.083,3.083,0,0,1,3.34-3.233V.466C2.421.528.017,3.264.017,7.056A6.478,6.478,0,0,0,2.23,11.963,6.9,6.9,0,0,0,0,17.227a6.729,6.729,0,0,0,6.991,7.056c4,0,5.868-1.834,7.46-6.808.718-2.238,1.654-3.326,3.277-3.326a3.209,3.209,0,0,1,3.152,3.078,3.083,3.083,0,0,1-3.34,3.233v3.357c4.026-.062,6.43-2.8,6.43-6.59a6.478,6.478,0,0,0-2.213-4.906m-11.177,5.4c-.843,2.456-1.9,3.2-3.589,3.2a3.617,3.617,0,0,1-3.9-3.7,3.426,3.426,0,0,1,2.879-3.747c.117.006.235.01.353.01,3.277,0,5.15-1.243,7.085-6.932.843-2.456,1.9-3.2,3.589-3.2a3.616,3.616,0,0,1,3.9,3.7A3.682,3.682,0,0,1,17.342,10.8c-3.078.084-4.891,1.429-6.761,6.928" transform="translate(0 0)" fill="#c91e1e"/>
      </g>
    </g>
    <g id="Grupo_9" data-name="Grupo 9" transform="translate(298.042 936.381)">
      <path id="Trazado_10" data-name="Trazado 10" d="M10.075,4.467h.061l2.878,9.03H7.165ZM8.6,0,0,23.613H3.491L6,16.657h8.145l2.511,6.956H20.18L11.575,0Z" fill="#3b3b3b"/>
      <g id="Grupo_8" data-name="Grupo 8">
        <g id="Grupo_7" data-name="Grupo 7" clip-path="url(#clip-path-2)">
          <path id="Trazado_11" data-name="Trazado 11" d="M10.84,23.613,3.368,12.668H3.307V23.613H0V0H7.257c5.451,0,7.87,3,7.87,7.85a6.632,6.632,0,0,1-6.492,6.956l6.339,8.807ZM5.726,12.189c3.858,0,6.094-1.564,6.094-4.627,0-2.712-2.083-4.4-5.022-4.4H3.307v9.03Z" transform="translate(22.368)" fill="#3b3b3b"/>
          <path id="Trazado_12" data-name="Trazado 12" d="M9.186,0h3.307V16.817c0,4.259-2.572,6.8-6.247,6.8A6.264,6.264,0,0,1,0,18.539H3.4a2.729,2.729,0,0,0,2.879,1.973c1.868,0,2.909-1.472,2.909-3.6Z" transform="translate(38.539)" fill="#3b3b3b"/>
          <path id="Trazado_13" data-name="Trazado 13" d="M0,23.613V0H12.218V3.159H3.307v6.956h8.911v3.159H3.307v7.179h8.911v3.159Z" transform="translate(55.298)" fill="#3b3b3b"/>
          <path id="Trazado_14" data-name="Trazado 14" d="M0,23.613V0H3.307V20.454h7.87v3.159Z" transform="translate(71.782)" fill="#3b3b3b"/>
        </g>
      </g>
    </g>
  </g>
</svg>
