<svg id="SvgLogo" xmlns="http://www.w3.org/2000/svg" xmlns:xlink="http://www.w3.org/1999/xlink" width="32" height="32.395" viewBox="0 0 32 32.395">
  <defs>
    <clipPath id="clip-path">
      <rect id="Rectángulo_4" data-name="Rectángulo 4" width="32" height="32.395" fill="#3b3b3b"/>
    </clipPath>
  </defs>
  <g id="Grupo_5" data-name="Grupo 5" clip-path="url(#clip-path)">
    <path id="Trazado_9" data-name="Trazado 9" d="M29.025,16.437A9.2,9.2,0,0,0,32,9.413C32,3.981,28.253,0,22.673,0c-5.329,0-7.828,2.447-9.951,9.082-.958,2.986-2.207,4.437-4.372,4.437A4.281,4.281,0,0,1,4.145,9.413,4.113,4.113,0,0,1,8.6,5.1V.622C3.229.7.023,4.354.023,9.413a8.641,8.641,0,0,0,2.952,6.545A9.2,9.2,0,0,0,0,22.982c0,5.432,3.747,9.413,9.327,9.413,5.329,0,7.828-2.446,9.951-9.081.958-2.986,2.206-4.437,4.372-4.437a4.281,4.281,0,0,1,4.205,4.106A4.113,4.113,0,0,1,23.4,27.294v4.478c5.371-.083,8.577-3.732,8.577-8.791a8.641,8.641,0,0,0-2.952-6.545m-14.91,7.208c-1.124,3.276-2.54,4.271-4.788,4.271-3.039,0-5.2-1.949-5.2-4.935,0-2.6,1.256-4.545,3.84-5,.156.009.313.014.471.014,4.372,0,6.87-1.659,9.451-9.248,1.124-3.276,2.54-4.271,4.788-4.271,3.039,0,5.2,1.949,5.2,4.935,0,2.742-1.86,4.662-4.744,4.99-4.107.112-6.524,1.906-9.019,9.241" transform="translate(0 0)" fill="#3b3b3b"/>
  </g>
</svg>
